<?xml version="1.0" encoding="UTF-8" standalone="no"?>
<!DOCTYPE svg PUBLIC "-//W3C//DTD SVG 1.1//EN" "http://www.w3.org/Graphics/SVG/1.1/DTD/svg11.dtd">
<svg xmlns="http://www.w3.org/2000/svg" version="1.1" viewBox="0.00 0.00 800.00 533.00">
<g stroke-width="2.00" fill="none" stroke-linecap="butt">
<path stroke="#dadfc0" vector-effect="non-scaling-stroke" d="
  M 800.00 229.12
  Q 796.22 228.43 792.34 227.95
  Q 787.91 227.40 784.73 226.67
  Q 767.74 222.78 754.77 218.55
  Q 745.67 215.57 734.50 213.54
  Q 721.34 211.14 707.87 209.19
  C 703.55 208.57 698.93 208.57 694.32 208.20
  C 685.54 207.50 676.98 207.71 668.28 207.86
  C 665.08 207.92 661.98 208.24 658.81 208.53
  C 653.06 209.06 647.27 210.30 641.56 211.32
  Q 638.72 211.82 631.51 213.45
  Q 626.89 214.49 621.01 215.50
  Q 607.45 217.84 591.35 221.98
  Q 582.35 224.30 575.25 227.36
  Q 566.90 230.97 559.03 234.20
  C 555.95 235.47 552.63 236.30 549.42 237.12
  C 543.29 238.69 536.48 238.67 530.94 240.37
  Q 526.49 241.73 521.01 244.67
  C 514.44 248.20 508.61 253.47 502.83 258.05
  Q 500.21 260.13 496.95 261.65
  Q 489.48 265.13 482.07 268.53
  Q 475.87 271.37 470.09 275.35
  Q 462.17 280.81 453.77 287.79
  Q 450.28 290.68 446.99 293.45
  Q 438.28 300.78 427.79 308.33
  Q 415.46 317.22 403.71 323.87
  C 399.03 326.52 394.19 328.39 389.27 330.50
  Q 383.28 333.06 378.88 335.85
  C 370.13 341.39 360.89 347.68 351.84 351.36
  Q 336.64 357.54 324.25 363.00
  Q 316.04 366.62 307.76 370.15
  C 298.00 374.32 288.12 377.95 278.15 381.53
  Q 273.49 383.21 267.55 385.88
  Q 262.32 388.23 256.97 390.31
  C 250.44 392.86 244.65 395.82 238.49 398.68
  C 230.55 402.37 223.06 406.31 215.64 410.69
  Q 208.19 415.09 200.26 419.48
  Q 195.68 422.02 191.47 424.75
  C 185.97 428.31 179.73 431.07 174.01 434.42
  Q 152.87 446.77 129.34 462.89
  Q 120.55 468.91 112.55 474.66
  Q 99.13 484.32 87.64 494.92
  C 76.43 505.27 67.86 517.00 59.88 529.93
  Q 58.85 531.62 59.61 533.00"
/>
<path stroke="#dadfc0" vector-effect="non-scaling-stroke" d="
  M 800.00 306.62
  L 800.00 331.26"
/>
<path stroke="#cbd2a4" vector-effect="non-scaling-stroke" d="
  M 800.00 334.75
  Q 799.42 334.22 798.09 334.27
  Q 796.86 334.32 796.16 334.19
  C 788.44 332.71 780.30 331.42 772.85 329.28
  Q 759.60 325.49 747.12 322.04
  Q 723.48 315.53 697.35 313.96
  Q 680.21 312.93 667.57 313.63
  Q 656.93 314.21 644.46 315.94
  Q 638.11 316.82 631.25 318.87
  Q 624.19 320.97 617.43 321.95
  C 603.43 323.96 590.02 327.57 576.00 332.21
  Q 571.46 333.71 563.85 337.75
  C 560.85 339.35 557.48 339.87 554.28 341.00
  C 547.70 343.34 540.47 343.97 533.62 345.30
  Q 525.64 346.86 517.35 352.36
  C 512.04 355.88 504.42 362.67 496.86 366.97
  C 489.00 371.45 480.15 374.08 472.55 379.19
  Q 461.82 386.39 452.95 393.95
  Q 428.91 414.47 406.43 427.85
  Q 401.04 431.06 393.40 434.03
  Q 382.83 438.15 370.39 446.69
  C 365.57 450.01 360.35 452.66 355.09 455.28
  Q 351.00 457.31 342.93 460.44
  Q 335.65 463.27 326.81 467.32
  Q 320.46 470.23 297.01 480.18
  Q 292.07 482.28 284.40 484.90
  Q 276.40 487.62 271.74 489.50
  Q 252.31 497.32 234.72 505.72
  C 223.28 511.18 212.65 518.14 201.57 524.30
  Q 195.61 527.62 188.22 532.10
  Q 187.67 532.43 188.31 532.53
  L 191.25 533.00"
/>
<path stroke="#d3dab5" vector-effect="non-scaling-stroke" d="
  M 800.00 337.36
  L 800.00 345.76"
/>
<path stroke="#d3dab5" vector-effect="non-scaling-stroke" d="
  M 800.00 397.37
  L 800.00 408.01"
/>
<path stroke="#d3dab5" vector-effect="non-scaling-stroke" d="
  M 800.00 453.11
  L 800.00 459.76"
/>
</g>
<path fill="#e2e7d1" d="
  M 0.00 0.00
  L 800.00 0.00
  L 800.00 229.12
  Q 796.22 228.43 792.34 227.95
  Q 787.91 227.40 784.73 226.67
  Q 767.74 222.78 754.77 218.55
  Q 745.67 215.57 734.50 213.54
  Q 721.34 211.14 707.87 209.19
  C 703.55 208.57 698.93 208.57 694.32 208.20
  C 685.54 207.50 676.98 207.71 668.28 207.86
  C 665.08 207.92 661.98 208.24 658.81 208.53
  C 653.06 209.06 647.27 210.30 641.56 211.32
  Q 638.72 211.82 631.51 213.45
  Q 626.89 214.49 621.01 215.50
  Q 607.45 217.84 591.35 221.98
  Q 582.35 224.30 575.25 227.36
  Q 566.90 230.97 559.03 234.20
  C 555.95 235.47 552.63 236.30 549.42 237.12
  C 543.29 238.69 536.48 238.67 530.94 240.37
  Q 526.49 241.73 521.01 244.67
  C 514.44 248.20 508.61 253.47 502.83 258.05
  Q 500.21 260.13 496.95 261.65
  Q 489.48 265.13 482.07 268.53
  Q 475.87 271.37 470.09 275.35
  Q 462.17 280.81 453.77 287.79
  Q 450.28 290.68 446.99 293.45
  Q 438.28 300.78 427.79 308.33
  Q 415.46 317.22 403.71 323.87
  C 399.03 326.52 394.19 328.39 389.27 330.50
  Q 383.28 333.06 378.88 335.85
  C 370.13 341.39 360.89 347.68 351.84 351.36
  Q 336.64 357.54 324.25 363.00
  Q 316.04 366.62 307.76 370.15
  C 298.00 374.32 288.12 377.95 278.15 381.53
  Q 273.49 383.21 267.55 385.88
  Q 262.32 388.23 256.97 390.31
  C 250.44 392.86 244.65 395.82 238.49 398.68
  C 230.55 402.37 223.06 406.31 215.64 410.69
  Q 208.19 415.09 200.26 419.48
  Q 195.68 422.02 191.47 424.75
  C 185.97 428.31 179.73 431.07 174.01 434.42
  Q 152.87 446.77 129.34 462.89
  Q 120.55 468.91 112.55 474.66
  Q 99.13 484.32 87.64 494.92
  C 76.43 505.27 67.86 517.00 59.88 529.93
  Q 58.85 531.62 59.61 533.00
  L 0.00 533.00
  L 0.00 0.00
  Z"
/>
<path fill="#d1d7ae" d="
  M 800.00 229.12
  L 800.00 306.62
  L 800.00 331.26
  L 800.00 334.75
  Q 799.42 334.22 798.09 334.27
  Q 796.86 334.32 796.16 334.19
  C 788.44 332.71 780.30 331.42 772.85 329.28
  Q 759.60 325.49 747.12 322.04
  Q 723.48 315.53 697.35 313.96
  Q 680.21 312.93 667.57 313.63
  Q 656.93 314.21 644.46 315.94
  Q 638.11 316.82 631.25 318.87
  Q 624.19 320.97 617.43 321.95
  C 603.43 323.96 590.02 327.57 576.00 332.21
  Q 571.46 333.71 563.85 337.75
  C 560.85 339.35 557.48 339.87 554.28 341.00
  C 547.70 343.34 540.47 343.97 533.62 345.30
  Q 525.64 346.86 517.35 352.36
  C 512.04 355.88 504.42 362.67 496.86 366.97
  C 489.00 371.45 480.15 374.08 472.55 379.19
  Q 461.82 386.39 452.95 393.95
  Q 428.91 414.47 406.43 427.85
  Q 401.04 431.06 393.40 434.03
  Q 382.83 438.15 370.39 446.69
  C 365.57 450.01 360.35 452.66 355.09 455.28
  Q 351.00 457.31 342.93 460.44
  Q 335.65 463.27 326.81 467.32
  Q 320.46 470.23 297.01 480.18
  Q 292.07 482.28 284.40 484.90
  Q 276.40 487.62 271.74 489.50
  Q 252.31 497.32 234.72 505.72
  C 223.28 511.18 212.65 518.14 201.57 524.30
  Q 195.61 527.62 188.22 532.10
  Q 187.67 532.43 188.31 532.53
  L 191.25 533.00
  L 59.61 533.00
  Q 58.85 531.62 59.88 529.93
  C 67.86 517.00 76.43 505.27 87.64 494.92
  Q 99.13 484.32 112.55 474.66
  Q 120.55 468.91 129.34 462.89
  Q 152.87 446.77 174.01 434.42
  C 179.73 431.07 185.97 428.31 191.47 424.75
  Q 195.68 422.02 200.26 419.48
  Q 208.19 415.09 215.64 410.69
  C 223.06 406.31 230.55 402.37 238.49 398.68
  C 244.65 395.82 250.44 392.86 256.97 390.31
  Q 262.32 388.23 267.55 385.88
  Q 273.49 383.21 278.15 381.53
  C 288.12 377.95 298.00 374.32 307.76 370.15
  Q 316.04 366.62 324.25 363.00
  Q 336.64 357.54 351.84 351.36
  C 360.89 347.68 370.13 341.39 378.88 335.85
  Q 383.28 333.06 389.27 330.50
  C 394.19 328.39 399.03 326.52 403.71 323.87
  Q 415.46 317.22 427.79 308.33
  Q 438.28 300.78 446.99 293.45
  Q 450.28 290.68 453.77 287.79
  Q 462.17 280.81 470.09 275.35
  Q 475.87 271.37 482.07 268.53
  Q 489.48 265.13 496.95 261.65
  Q 500.21 260.13 502.83 258.05
  C 508.61 253.47 514.44 248.20 521.01 244.67
  Q 526.49 241.73 530.94 240.37
  C 536.48 238.67 543.29 238.69 549.42 237.12
  C 552.63 236.30 555.95 235.47 559.03 234.20
  Q 566.90 230.97 575.25 227.36
  Q 582.35 224.30 591.35 221.98
  Q 607.45 217.84 621.01 215.50
  Q 626.89 214.49 631.51 213.45
  Q 638.72 211.82 641.56 211.32
  C 647.27 210.30 653.06 209.06 658.81 208.53
  C 661.98 208.24 665.08 207.92 668.28 207.86
  C 676.98 207.71 685.54 207.50 694.32 208.20
  C 698.93 208.57 703.55 208.57 707.87 209.19
  Q 721.34 211.14 734.50 213.54
  Q 745.67 215.57 754.77 218.55
  Q 767.74 222.78 784.73 226.67
  Q 787.91 227.40 792.34 227.95
  Q 796.22 228.43 800.00 229.12
  Z"
/>
<path fill="#e2e7d1" d="
  M 800.00 306.62
  L 800.00 331.26
  L 800.00 306.62
  Z"
/>
<path fill="#c4cc99" d="
  M 800.00 334.75
  L 800.00 337.36
  L 800.00 345.76
  L 800.00 397.37
  L 800.00 408.01
  L 800.00 453.11
  L 800.00 459.76
  L 800.00 533.00
  L 191.25 533.00
  L 188.31 532.53
  Q 187.67 532.43 188.22 532.10
  Q 195.61 527.62 201.57 524.30
  C 212.65 518.14 223.28 511.18 234.72 505.72
  Q 252.31 497.32 271.74 489.50
  Q 276.40 487.62 284.40 484.90
  Q 292.07 482.28 297.01 480.18
  Q 320.46 470.23 326.81 467.32
  Q 335.65 463.27 342.93 460.44
  Q 351.00 457.31 355.09 455.28
  C 360.35 452.66 365.57 450.01 370.39 446.69
  Q 382.83 438.15 393.40 434.03
  Q 401.04 431.06 406.43 427.85
  Q 428.91 414.47 452.95 393.95
  Q 461.82 386.39 472.55 379.19
  C 480.15 374.08 489.00 371.45 496.86 366.97
  C 504.42 362.67 512.04 355.88 517.35 352.36
  Q 525.64 346.86 533.62 345.30
  C 540.47 343.97 547.70 343.34 554.28 341.00
  C 557.48 339.87 560.85 339.35 563.85 337.75
  Q 571.46 333.71 576.00 332.21
  C 590.02 327.57 603.43 323.96 617.43 321.95
  Q 624.19 320.97 631.25 318.87
  Q 638.11 316.82 644.46 315.94
  Q 656.93 314.21 667.57 313.63
  Q 680.21 312.93 697.35 313.96
  Q 723.48 315.53 747.12 322.04
  Q 759.60 325.49 772.85 329.28
  C 780.30 331.42 788.44 332.71 796.16 334.19
  Q 796.86 334.32 798.09 334.27
  Q 799.42 334.22 800.00 334.75
  Z"
/>
<path fill="#e2e7d1" d="
  M 800.00 337.36
  L 800.00 345.76
  L 800.00 337.36
  Z"
/>
<path fill="#e2e7d1" d="
  M 800.00 397.37
  L 800.00 408.01
  L 800.00 397.37
  Z"
/>
<path fill="#e2e7d1" d="
  M 800.00 453.11
  L 800.00 459.76
  L 800.00 453.11
  Z"
/>
</svg>
