<?xml version="1.0" encoding="UTF-8" standalone="no"?>
<!DOCTYPE svg PUBLIC "-//W3C//DTD SVG 1.1//EN" "http://www.w3.org/Graphics/SVG/1.1/DTD/svg11.dtd">
<svg xmlns="http://www.w3.org/2000/svg" version="1.1" viewBox="0.00 0.00 365.00 317.00">
<path fill="#5c5926" d="
  M 162.85 22.52
  Q 183.38 12.03 206.50 14.00
  C 235.67 16.48 259.06 37.30 256.50 68.25
  C 253.72 101.86 221.39 124.61 193.12 136.95
  A 1.38 1.35 49.6 0 1 191.81 136.83
  Q 169.75 122.19 144.27 114.96
  Q 141.87 114.27 144.32 113.79
  Q 167.92 109.14 190.40 98.02
  Q 201.91 92.33 210.87 83.14
  C 216.88 76.98 223.50 63.15 216.77 55.87
  C 208.42 46.86 187.94 49.70 177.76 52.07
  C 155.07 57.35 131.92 69.25 117.84 88.40
  Q 117.31 89.12 117.28 88.23
  C 116.44 60.07 139.30 34.55 162.85 22.52
  Z"
/>
<path fill="#5c5926" d="
  M 114.60 97.88
  Q 114.91 99.31 115.78 98.13
  C 131.60 76.65 155.05 61.24 181.71 57.79
  Q 184.50 57.43 187.57 56.75
  Q 188.01 56.65 188.01 57.10
  L 188.02 57.47
  A 0.62 0.61 -6.2 0 1 187.52 58.08
  C 156.27 64.22 130.80 84.99 113.59 110.82
  A 0.56 0.55 53.3 0 1 112.60 110.67
  C 104.30 84.25 108.13 57.31 131.47 40.32
  A 0.19 0.18 -85.6 0 1 131.71 40.60
  C 123.29 49.16 117.01 61.26 114.45 72.78
  C 112.63 80.96 112.86 89.79 114.60 97.88
  Z"
/>
<path fill="#5c5926" d="
  M 155.98 156.63
  L 155.84 156.92
  Q 155.76 157.09 155.90 157.22
  C 158.99 160.12 166.25 166.80 166.24 170.57
  Q 166.21 186.91 166.29 203.24
  C 166.31 208.92 168.43 215.45 173.32 218.46
  Q 173.80 218.76 174.17 219.16
  Q 174.57 219.59 173.98 219.58
  Q 164.51 219.45 155.07 219.48
  Q 145.16 219.51 141.11 218.13
  Q 128.99 214.00 129.00 199.00
  Q 129.03 170.88 129.00 142.77
  A 1.05 1.05 0.0 0 0 128.30 141.78
  Q 107.91 134.48 86.52 139.24
  Q 85.66 139.43 84.97 139.21
  A 0.28 0.27 27.2 0 1 84.83 138.79
  C 107.43 107.56 142.38 115.73 171.29 130.92
  C 197.22 144.55 220.02 162.09 246.78 179.51
  Q 255.60 185.26 268.46 191.53
  Q 279.91 197.12 291.73 194.70
  Q 292.24 194.59 291.87 194.96
  C 275.99 210.45 257.00 222.56 233.92 215.87
  C 223.11 212.73 214.24 206.41 205.20 199.32
  C 195.66 191.83 181.54 177.13 167.58 165.51
  Q 162.12 160.96 156.62 156.48
  Q 156.20 156.14 155.98 156.63
  Z"
/>
<path fill="#c0b966" d="
  M 224.3630 290.4204
  A 15.76 15.76 0.0 0 1 208.7134 306.2901
  L 206.0135 306.3089
  A 15.76 15.76 0.0 0 1 190.1439 290.6593
  L 190.0770 281.0796
  A 15.76 15.76 0.0 0 1 205.7266 265.2099
  L 208.4265 265.1911
  A 15.76 15.76 0.0 0 1 224.2961 280.8407
  L 224.3630 290.4204
  Z
  M 205.53 272.65
  C 198.15 273.75 199.45 288.37 200.60 293.22
  C 202.53 301.36 212.03 301.12 213.77 293.26
  C 215.12 287.20 216.39 271.03 205.53 272.65
  Z"
/>
<path fill="#c0b966" d="
  M 158.48 296.23
  A 0.29 0.29 0.0 0 0 159.04 296.23
  L 166.01 267.02
  Q 166.34 265.67 167.73 265.69
  L 174.00 265.83
  A 1.12 1.12 0.0 0 1 175.05 267.25
  L 164.63 304.75
  A 0.85 0.84 -88.1 0 1 164.01 305.34
  Q 158.48 306.59 152.99 305.37
  A 1.51 1.48 75.6 0 1 152.20 304.89
  Q 150.68 303.14 150.10 300.95
  Q 145.71 284.24 141.33 268.93
  Q 140.50 266.02 143.51 265.81
  L 147.26 265.54
  Q 150.50 265.31 151.31 268.45
  L 158.48 296.23
  Z"
/>
<path fill="#c0b966" d="
  M 73.37 289.17
  Q 75.76 291.67 76.94 294.86
  C 78.32 298.61 79.13 300.40 80.76 303.20
  Q 81.13 303.83 80.52 304.23
  C 78.41 305.59 75.13 306.72 72.76 305.75
  C 66.20 303.07 69.79 289.53 60.62 291.18
  A 0.78 0.78 0.0 0 0 59.98 291.96
  L 60.11 303.87
  Q 60.14 305.87 58.13 305.88
  L 52.52 305.91
  Q 50.36 305.92 50.37 303.77
  L 50.45 266.73
  Q 50.45 265.78 51.40 265.76
  Q 60.02 265.58 67.98 265.80
  Q 73.54 265.95 76.63 270.02
  C 81.18 276.01 79.60 284.01 73.44 288.42
  Q 72.97 288.75 73.37 289.17
  Z
  M 59.96 273.35
  L 60.02 283.07
  A 0.66 0.66 0.0 0 0 60.68 283.73
  L 64.50 283.71
  A 4.89 4.88 89.7 0 0 69.35 278.80
  L 69.35 277.54
  A 4.89 4.88 89.7 0 0 64.44 272.67
  L 60.62 272.69
  A 0.66 0.66 0.0 0 0 59.96 273.35
  Z"
/>
<path fill="#c0b966" d="
  M 108.49 273.76
  Q 108.00 273.77 108.01 274.26
  L 108.19 281.17
  Q 108.20 281.55 108.58 281.55
  L 120.01 281.73
  Q 121.52 281.75 121.50 283.26
  L 121.43 288.09
  Q 121.41 289.46 120.04 289.48
  L 108.55 289.67
  Q 108.03 289.68 108.04 290.20
  L 108.13 297.02
  Q 108.14 297.65 108.77 297.65
  L 124.20 297.74
  Q 126.79 297.76 125.97 300.22
  L 125.04 303.02
  A 3.71 3.71 0.0 0 1 121.65 305.56
  Q 113.93 305.84 104.50 305.69
  C 99.02 305.60 98.53 302.34 98.55 297.55
  Q 98.64 282.29 98.62 266.64
  Q 98.62 265.85 99.41 265.85
  L 123.05 265.94
  Q 124.91 265.95 124.81 267.81
  L 124.59 271.77
  Q 124.49 273.52 122.73 273.55
  L 108.49 273.76
  Z"
/>
<path fill="#c0b966" d="
  M 274.54 291.75
  C 274.47 297.37 272.12 302.62 266.66 304.89
  C 256.54 309.12 243.46 305.52 243.14 292.74
  Q 242.81 279.40 242.76 268.02
  Q 242.74 264.93 245.78 265.51
  L 249.29 266.18
  A 3.80 3.79 -85.1 0 1 252.37 269.85
  Q 252.56 281.75 252.49 291.98
  C 252.42 301.48 264.83 300.91 264.94 292.61
  Q 265.11 279.36 264.92 266.82
  A 1.07 1.07 0.0 0 1 265.99 265.74
  L 273.73 265.73
  A 0.80 0.79 -0.0 0 1 274.53 266.52
  Q 274.69 279.33 274.54 291.75
  Z"
/>
<path fill="#c0b966" d="
  M 303.87 279.45
  A 0.43 0.42 65.3 0 0 303.76 279.76
  Q 304.51 291.97 304.24 304.23
  A 1.55 1.54 -1.0 0 1 302.78 305.74
  L 297.17 306.06
  A 1.65 1.65 0.0 0 1 295.43 304.42
  L 295.40 266.85
  A 1.13 1.13 0.0 0 1 296.53 265.72
  L 305.17 265.74
  A 1.94 1.93 78.5 0 1 306.93 266.91
  L 317.81 292.24
  A 0.43 0.43 0.0 0 0 318.64 292.05
  L 317.87 269.75
  A 3.54 3.54 0.0 0 1 320.80 266.14
  L 324.33 265.53
  Q 327.24 265.02 327.24 267.98
  L 327.23 304.47
  A 0.84 0.84 0.0 0 1 326.60 305.28
  Q 321.57 306.52 316.49 305.51
  A 1.61 1.59 83.3 0 1 315.35 304.60
  Q 309.94 292.43 304.73 280.02
  Q 304.65 279.84 304.62 279.56
  Q 304.51 278.72 303.87 279.45
  Z"
/>
</svg>
